<?xml version="1.0" encoding="UTF-8" standalone="no"?>
<!-- Created with Inkscape (http://www.inkscape.org/) -->

<svg
   width="210mm"
   height="297mm"
   viewBox="0 0 210 297"
   version="1.1"
   id="svg5"
   inkscape:version="1.2.2 (732a01da63, 2022-12-09)"
   sodipodi:docname="logoPocketHero.svg"
   xmlns:inkscape="http://www.inkscape.org/namespaces/inkscape"
   xmlns:sodipodi="http://sodipodi.sourceforge.net/DTD/sodipodi-0.dtd"
   xmlns="http://www.w3.org/2000/svg"
   xmlns:svg="http://www.w3.org/2000/svg">
  <sodipodi:namedview
     id="namedview7"
     pagecolor="#ffffff"
     bordercolor="#000000"
     borderopacity="0.25"
     inkscape:showpageshadow="2"
     inkscape:pageopacity="0.0"
     inkscape:pagecheckerboard="0"
     inkscape:deskcolor="#d1d1d1"
     inkscape:document-units="mm"
     showgrid="false"
     showguides="true"
     inkscape:zoom="0.73851712"
     inkscape:cx="79.212788"
     inkscape:cy="476.63079"
     inkscape:window-width="1920"
     inkscape:window-height="1009"
     inkscape:window-x="1912"
     inkscape:window-y="-8"
     inkscape:window-maximized="1"
     inkscape:current-layer="layer1"
     inkscape:lockguides="false" />
  <defs
     id="defs2">
    <inkscape:path-effect
       effect="powerstroke"
       id="path-effect2117"
       is_visible="true"
       lpeversion="1"
       offset_points="3,0.21564298"
       not_jump="false"
       sort_points="true"
       interpolator_type="CubicBezierJohan"
       interpolator_beta="0.2"
       start_linecap_type="zerowidth"
       linejoin_type="extrp_arc"
       miter_limit="4"
       scale_width="1"
       end_linecap_type="zerowidth" />
  </defs>
  <g
     inkscape:label="Capa 1"
     inkscape:groupmode="layer"
     id="layer1">
    <rect
       style="fill:#000000;stroke-width:0.467047"
       id="rect594"
       width="25.731674"
       height="104.50037"
       x="44.216072"
       y="45.317215"
       ry="0" />
    <rect
       style="fill:#000000;stroke-width:0.582967"
       id="rect594-1"
       width="32.679592"
       height="187.04988"
       x="118.73766"
       y="46.136818" />
    <path
       style="fill:#000000;stroke-width:0.191203"
       d="m 83.213357,142.62537 c 0,0 -12.20908,0.99017 -12.90894,7.67053 -0.69988,6.68034 -1.25601,-0.0682 -1.25601,-0.0682 l 0.0292,-7.90149 7.4084,-0.31908 6.70545,-0.0458 z"
       id="path741-9-0-38-4"
       sodipodi:nodetypes="csccccc" />
    <path
       style="fill:#000000;stroke-width:0.191203"
       d="m 105.23296,143.16276 c 0,0 12.20908,0.99017 12.90894,7.67053 0.69988,6.68034 1.25601,-0.0682 1.25601,-0.0682 l -0.0292,-7.90149 -7.4084,-0.31908 -6.70545,-0.0458 z"
       id="path741-9-0-38-4-0"
       sodipodi:nodetypes="csccccc" />
    <rect
       style="fill:#000000;stroke-width:0.264583"
       id="rect624"
       width="29.196302"
       height="1.3933159"
       x="141.34055"
       y="45.96088" />
    <rect
       style="fill:#000000;stroke-width:0.264583"
       id="rect624-6"
       width="29.196302"
       height="1.3933159"
       x="146.36873"
       y="231.6089" />
    <path
       style="fill:#000000;stroke-width:0.34308"
       d="m 170.57795,47.567318 c 0,0 -18.04431,2.251347 -19.1191,16.256626 -1.07479,14.005279 -4.84215,1.347774 -4.84215,1.347774 l 2.9581,-18.05619 11.59876,-0.451779 8.82223,0.301188 z"
       id="path741"
       sodipodi:nodetypes="csccccc" />
    <path
       style="fill:#000000;stroke-width:0.434602"
       d="m 165.21193,231.81729 c 0,0 -13.83699,-4.71123 -14.66118,-34.01895 -0.82419,-29.30774 -1.47911,0.29942 -1.47911,0.29942 l 0.0343,34.66507 8.89432,0.94538 6.76519,-0.63027 z"
       id="path741-9"
       sodipodi:nodetypes="csccccc" />
    <path
       style="fill:#000000;stroke-width:0.547256"
       d="m 105.44829,231.17952 c 0,0 22.52414,-4.58909 23.86577,-33.13701 1.34164,-28.54794 2.40773,0.29166 2.40773,0.29166 l -0.0559,33.76638 -14.47836,0.92087 -11.01251,-0.61393 z"
       id="path741-9-07"
       sodipodi:nodetypes="csccccc" />
    <path
       style="fill:#000000;stroke-width:0.160468"
       d="m 87.756615,155.11922 c 0,0 -7.577159,1.12375 -8.011504,8.70538 -0.434354,7.5816 -0.779499,-0.0774 -0.779499,-0.0774 l 0.01813,-8.9675 4.597777,-0.36212 4.161514,-0.0519 z"
       id="path741-9-0"
       sodipodi:nodetypes="csccccc" />
    <path
       style="fill:#000000;stroke-width:0.191203"
       d="m 79.382777,167.28682 c 0,0 -12.20908,0.99017 -12.90894,7.67053 -0.699876,6.68034 -1.256007,-0.0682 -1.256007,-0.0682 l 0.02921,-7.90149 7.4084,-0.31908 6.70545,-0.0458 z"
       id="path741-9-0-38"
       sodipodi:nodetypes="csccccc" />
    <path
       style="fill:#000000;stroke-width:0.207834"
       d="m 47.593794,180.12349 c 0,0 -1.150877,-12.17442 -9.368679,-12.84662 -8.217776,-0.67222 -0.386316,-1.02724 -0.386316,-1.02724 l 9.719968,0.028 0.392513,7.11563 0.05634,6.44046 z"
       id="path741-9-0-38-7"
       sodipodi:nodetypes="csccccc" />
    <path
       style="fill:#000000;stroke-width:0.400729"
       d="M 44.18913,45.407125 56.907462,15.307824 69.956071,45.407125"
       id="path792"
       sodipodi:nodetypes="ccc" />
    <rect
       style="fill:#ffffff;stroke-width:0.264583"
       id="rect794"
       width="11.330932"
       height="100.99754"
       x="56.99929"
       y="45.726097" />
    <path
       style="fill:#ffffff;stroke-width:0.357924"
       d="M 40.36165,153.76168 C 56.978001,134.8549 57.300259,134.68893 57.300259,134.68893 l 17.349993,19.04931"
       id="path906-9-9-2-9-4-1"
       sodipodi:nodetypes="ccc" />
    <path
       style="fill:#ffffff;stroke-width:0.374045"
       d="m 57.020547,45.998046 c 0.08847,-25.554349 0.08847,-25.64497 0.08847,-25.64497 l 11.576115,25.410162 z"
       id="path902"
       sodipodi:nodetypes="cccc" />
    <rect
       style="fill:#ffffff;stroke-width:0.40126"
       id="rect904"
       width="11.629574"
       height="1.7977399"
       x="56.988518"
       y="45.827034"
       transform="skewY(0.06326411)"
       ry="0.50847763" />
    <rect
       style="fill:#000000;stroke-width:0.328165"
       id="rect982"
       width="18.853996"
       height="66.316299"
       x="47.203197"
       y="156.08162"
       transform="skewX(0.07722916)" />
    <path
       style="fill:#000000;stroke-width:0.239221"
       id="path1088"
       sodipodi:type="arc"
       sodipodi:cx="56.594837"
       sodipodi:cy="221.07588"
       sodipodi:rx="11.92817"
       sodipodi:ry="12.021788"
       sodipodi:start="6.15872"
       sodipodi:end="3.249431"
       sodipodi:arc-type="slice"
       d="m 68.430733,219.58345 a 11.92817,12.021788 0 0 1 -5.392752,11.6095 11.92817,12.021788 0 0 1 -12.718498,0.10657 11.92817,12.021788 0 0 1 -5.583526,-11.51754 l 11.85888,1.2939 z" />
    <path
       style="fill:#f9f9f9;stroke-width:0.270949"
       d="M 15.475367,181.51761 C 3.4878088,196.54332 3.2555048,196.67508 3.2555048,196.67508"
       id="path906-4"
       sodipodi:nodetypes="cc" />
    <path
       style="fill:#000000;stroke-width:0.302054"
       d="m 42.700874,153.43705 c 14.16595,-15.79418 14.440682,-15.93283 14.440682,-15.93283 l 14.791402,15.91325"
       id="path906-9-9-2-9"
       sodipodi:nodetypes="ccc" />
    <rect
       style="fill:#000000;stroke-width:0.284047"
       id="rect736"
       width="54.097706"
       height="24.361883"
       x="69.144753"
       y="119.30157" />
    <rect
       style="fill:#000000;stroke-width:0.222927"
       id="rect740"
       width="45.363434"
       height="12.734296"
       x="34.088726"
       y="154.40474" />
    <path
       style="fill:#f9f9f9;stroke-width:0.338395"
       d="m 73.525934,154.16687 c -15.737743,17.84338 -16.04296,18 -16.04296,18 L 41.05038,154.18898"
       id="path906-9-9-2-9-4"
       sodipodi:nodetypes="ccc" />
    <path
       style="fill:#000000;stroke-width:0.302853"
       d="m 71.958916,153.43512 c -14.181293,15.86077 -14.456326,16 -14.456326,16 L 42.695163,153.45478"
       id="path906-9-9-2-9-5"
       sodipodi:nodetypes="ccc" />
    <rect
       style="fill:#000000;stroke-width:0.264583"
       id="rect961"
       width="13.173169"
       height="0.18999763"
       x="28.102144"
       y="154.46425" />
    <rect
       style="fill:#000000;stroke-width:0.264583"
       id="rect961-6"
       width="13.173169"
       height="0.18999763"
       x="73.334305"
       y="154.40497" />
    <rect
       style="fill:#000000;stroke-width:0.264583"
       id="rect1076"
       width="2.2615349"
       height="6.3143845"
       x="77.384804"
       y="160.83768" />
    <rect
       style="fill:#000000;stroke-width:0.264583"
       id="rect1080"
       width="4.9037285"
       height="0.62699455"
       x="78.370026"
       y="154.5009" />
    <path
       style="fill:#000000;stroke-width:0.159722"
       d="m 25.909116,155.17526 c 0,0 7.57716,1.11334 8.01151,8.62468 0.43435,7.51131 0.7795,-0.0767 0.7795,-0.0767 l -0.0181,-8.88436 -4.59778,-0.35876 -4.16151,-0.0514 z"
       id="path741-9-0-3"
       sodipodi:nodetypes="csccccc" />
    <rect
       style="fill:#000000;stroke-width:0.264583"
       id="rect1143"
       width="2.5078409"
       height="0.59337306"
       x="32.098122"
       y="154.5009" />
    <rect
       style="fill:#000000;stroke-width:0.264583"
       id="rect1145"
       width="8.3632011"
       height="0.078370027"
       x="25.906891"
       y="154.41135" />
    <rect
       style="fill:#000000;stroke-width:0.264583"
       id="rect1147"
       width="29.064085"
       height="0.11195718"
       x="42.790031"
       y="153.35893" />
    <path
       style="fill:#225500;stroke-width:0.218096"
       d="m 46.926489,153.71626 c 9.838281,-11.85633 10.029083,-11.96042 10.029083,-11.96042 l 10.27266,11.94572"
       id="path906-9-9-2-9-3"
       sodipodi:nodetypes="ccc" />
    <path
       style="fill:#225500;stroke-width:0.218798"
       d="m 67.230601,153.6655 c -9.868974,11.89558 -10.015587,12.04478 -10.015587,12.04478 L 46.910303,153.72503"
       id="path906-9-9-2-9-3-2"
       sodipodi:nodetypes="ccc" />
    <circle
       id="path2023"
       style="fill:#d40000;stroke:#000000;stroke-width:0.264583"
       cx="105.38535"
       cy="79.039017"
       r="0.13497333" />
    <path
       style="fill:#225500;stroke-width:0.287216"
       id="path2043"
       d="m 3.1378927,79.157492 c 1.4879529,-1.436894 3.3383034,-3.288254 4.9100916,-4.388307 4.3186097,-3.022481 12.7910297,-7.652958 16.8080587,-9.768527 14.779003,-7.783359 13.664723,-6.887897 30.080275,-13.95405 18.71241,-6.323459 23.136116,-8.039956 42.110979,-13.55588 6.246693,-1.815892 12.508023,-3.570595 18.803433,-5.13553 2.3259,-0.578182 17.36746,-4.530944 22.28893,-3.871706 1.0785,0.144466 2.45064,0.581852 1.88463,2.126696 -0.95685,1.330278 -1.76571,2.830687 -2.87056,3.990832 -4.67593,4.909966 -14.40242,12.553798 -18.86709,16.311643 -4.5022,3.789446 -9.0205,7.554589 -13.44934,11.462243 -13.524314,11.932768 -14.209604,12.975638 -27.038196,25.697155 -3.425114,3.933343 -6.850224,7.866685 -10.275335,11.800026 -0.329406,0.438873 4.937493,5.928463 5.266899,5.489603 v 0 c 3.847658,-3.41339 7.695316,-6.826762 11.542975,-10.240141 4.433707,-4.198862 8.86737,-8.397791 13.301122,-12.596585 4.539455,-4.298895 9.110945,-8.551232 13.618495,-12.89649 4.27743,-4.123426 8.58438,-8.209465 12.73539,-12.508555 3.93865,-4.079137 12.85954,-15.118035 16.92719,-20.876818 1.59835,-2.262873 3.174,-4.629305 2.29911,-8.111566 -1.26206,-1.833729 -2.45091,-4.69881 -4.29285,-5.627854 -7.02607,-3.543844 -20.68,-2.201593 -27.28123,-1.22715 -13.572532,2.003515 -28.547025,6.257508 -41.479295,11.223966 -6.945005,2.667132 -13.660622,6.10166 -20.490934,9.15249 C 37.121293,48.633254 32.096344,50.895505 20.723047,59.04033 14.590279,63.432226 7.3834143,69.09391 2.9444555,76.035491 c -0.453651,0.709414 -0.766101,1.530093 -1.1491515,2.295139 -0.049616,0.111865 1.2929724,0.938734 1.3425887,0.826862 z"
       sodipodi:nodetypes="csscssscsssccsscsssscssscsscc" />
    <path
       style="fill:#225500;fill-rule:nonzero;stroke:none;stroke-width:0.264583"
       d="M 67.356714,99.986329 C 66.45495,104.49515 65.399295,111.306 65.398657,111.31092 l -0.07189,0.55529 0.42579,-0.36362 c 2.45465,-2.09622 5.111829,-4.3654 7.566478,-6.46163 l 0.190895,-0.16302 -0.189941,-0.16413 c -2.323008,-2.00733 -4.401403,-3.80328 -5.610824,-4.848355 z m 0.07046,0.205461 c 1.176361,1.0165 3.174838,2.7434 5.420883,4.68423 -2.116649,1.80757 -4.603174,3.93102 -6.93217,5.91994 0.272813,-1.72711 1.120563,-7.00918 1.863735,-10.72505 z"
       id="path2115"
       inkscape:path-effect="#path-effect2117"
       inkscape:original-d="m 67.568169,100.02862 c -1.393314,6.96658 -1.955654,11.30999 -1.955654,11.30999 l 7.566478,-6.46163 z"
       inkscape:linked-fill="path2121"
       transform="matrix(0.94631334,0,0,0.87207328,3.7679591,13.563476)"
       sodipodi:nodetypes="cccc" />
    <path
       style="fill:#225500;stroke-width:0.0423145"
       d="m 249.99798,416.55716 c 0.01,-0.0421 0.0331,-0.24868 0.0555,-1.14568 0.16795,-6.70934 2.33879,-12.73705 3.95337,-21.74982 1.85391,-10.34872 2.28391,-10.82683 2.32563,-10.86855 0.007,-0.007 0.19951,0.20077 0.42782,0.46171 0.2283,0.26094 0.65111,0.7251 0.93957,1.03147 l 0.52448,0.55704 -0.002,12.66625 -0.002,12.66625 -4.08897,3.21591 c -2.24894,1.76875 -5.59934,5.017 -5.61684,5.02415 -0.0175,0.007 1.47244,-1.81665 1.48254,-1.85875 z"
       id="path2131"
       transform="scale(0.26458333)"
       sodipodi:nodetypes="cssssscccsccc" />
    <path
       style="fill:#225500;stroke-width:0.0423145"
       d="m 258.26669,397.49998 v -12.62271 l 1.25886,1.24757 c 1.31766,1.30585 2.57372,2.48638 3.99042,3.75047 l 0.8419,0.75121 1.25598,7.36273 -1.25738,7.36273 -2.9606,2.3273 c -1.62833,1.28001 -2.99853,2.35342 -3.04489,2.38535 -0.0841,0.0579 -3.19607,-12.56465 -0.0843,-12.56465 z"
       id="path2133"
       transform="scale(0.26458333)"
       sodipodi:nodetypes="ccsscccsssc" />
    <path
       style="fill:#225500;stroke-width:0.0423145"
       d="m 264.4023,397.98868 v -7.30482 l 0.12138,0.0983 c 0.0668,0.054 0.46188,0.39447 0.87803,0.75649 2.36704,2.05914 5.01106,4.1618 6.68068,5.31279 0.60292,0.41565 1.39083,0.91779 1.56365,0.99653 0.0605,0.0275 2.79759,-1.43134 2.79118,-1.41354 -0.009,0.0263 -21.34693,16.90919 -21.45725,16.97738 -0.018,0.0111 9.4223,-11.40547 9.4223,-15.42312 z"
       id="path2139"
       transform="scale(0.26458333)"
       sodipodi:nodetypes="cccssscssc" />
    <path
       style="fill:#d40000;stroke-width:0.0211573"
       d="m 264.39806,400.82432 c 0,-0.064 0.004,-0.0902 0.009,-0.0582 0.005,0.032 0.005,0.0844 0,0.11637 -0.005,0.032 -0.009,0.006 -0.009,-0.0582 z"
       id="path2141"
       transform="scale(0.26458333)" />
    <rect
       style="fill:#225500;stroke-width:0.264583"
       id="rect2145"
       width="5.2565904"
       height="5.4149394"
       x="67.259163"
       y="99.970421"
       ry="0" />
    <rect
       style="fill:#225500;stroke-width:0.264583"
       id="rect2147"
       width="1.3458165"
       height="6.0165911"
       x="103.38245"
       y="-73.220329"
       transform="rotate(90)" />
  </g>
</svg>
